<svg xmlns="http://www.w3.org/2000/svg" viewBox="0 0 1200 630" fill="none">
  <defs>
    <linearGradient id="opsCanvas2A" x1="0" y1="0" x2="1" y2="1">
      <stop offset="0%" stop-color="#111827" />
      <stop offset="50%" stop-color="#1e293b" />
      <stop offset="100%" stop-color="#0f172a" />
    </linearGradient>
    <linearGradient id="opsCanvas2B" x1="0" y1="0" x2="1" y2="1">
      <stop offset="0%" stop-color="#38bdf8" stop-opacity="0.8" />
      <stop offset="100%" stop-color="#a5b4fc" stop-opacity="0.9" />
    </linearGradient>
  </defs>
  <rect width="1200" height="630" rx="28" fill="url(#opsCanvas2A)" />
  <rect x="140" y="110" width="920" height="410" rx="26" fill="#0b1220" stroke="#38bdf8" stroke-opacity="0.4" />
  <rect x="190" y="160" width="820" height="310" rx="20" fill="#111827" stroke="#1f2937" />
  <rect x="220" y="190" width="300" height="250" rx="18" fill="#0f172a" stroke="#334155" />
  <rect x="550" y="190" width="430" height="120" rx="14" fill="#0ea5e9" fill-opacity="0.12" stroke="#38bdf8" stroke-opacity="0.3" />
  <rect x="550" y="340" width="430" height="100" rx="14" fill="#312e81" fill-opacity="0.18" stroke="#818cf8" stroke-opacity="0.4" />
  <path d="M240 220 h160 a18 18 0 0 1 18 18 v120 a18 18 0 0 1 -18 18 h-160 a18 18 0 0 1 -18 -18 v-120 a18 18 0 0 1 18 -18 z" stroke="#38bdf8" stroke-width="4" fill="none" opacity="0.7" />
  <circle cx="270" cy="250" r="10" fill="#38bdf8" />
  <circle cx="330" cy="250" r="10" fill="#a5b4fc" />
  <circle cx="390" cy="250" r="10" fill="#38bdf8" />
  <rect x="260" y="290" width="180" height="14" rx="7" fill="#38bdf8" />
  <rect x="260" y="318" width="150" height="14" rx="7" fill="#818cf8" />
  <rect x="260" y="346" width="120" height="14" rx="7" fill="#38bdf8" />
  <rect x="580" y="222" width="320" height="16" rx="8" fill="#38bdf8" />
  <rect x="580" y="250" width="260" height="12" rx="6" fill="#7dd3fc" />
  <rect x="580" y="280" width="210" height="12" rx="6" fill="#a5b4fc" />
  <rect x="580" y="370" width="280" height="16" rx="8" fill="#818cf8" />
  <rect x="580" y="400" width="190" height="12" rx="6" fill="#cbd5f5" />
  <path d="M210 130 h180" stroke="#38bdf8" stroke-width="6" stroke-linecap="round" />
  <path d="M430 130 h120" stroke="#a5b4fc" stroke-width="6" stroke-linecap="round" />
  <path d="M590 130 h320" stroke="#38bdf8" stroke-width="6" stroke-linecap="round" />
  <rect x="200" y="500" width="800" height="6" rx="3" fill="url(#opsCanvas2B)" opacity="0.6" />
  <path d="M260 470 q80 -40 160 0 t160 0 t160 0" stroke="#38bdf8" stroke-width="6" stroke-linecap="round" opacity="0.4" />
  <circle cx="260" cy="470" r="6" fill="#38bdf8" />
  <circle cx="420" cy="470" r="6" fill="#38bdf8" />
  <circle cx="580" cy="470" r="6" fill="#38bdf8" />
  <circle cx="740" cy="470" r="6" fill="#38bdf8" />
  <circle cx="900" cy="470" r="6" fill="#38bdf8" />
</svg>
