<svg xmlns="http://www.w3.org/2000/svg" viewBox="0 0 1200 630" fill="none">
  <defs>
    <linearGradient id="opsCanvasA" x1="0" y1="0" x2="1" y2="1">
      <stop offset="0%" stop-color="#0ea5e9" />
      <stop offset="50%" stop-color="#6366f1" />
      <stop offset="100%" stop-color="#111827" />
    </linearGradient>
    <linearGradient id="opsCanvasB" x1="0" y1="0" x2="1" y2="1">
      <stop offset="0%" stop-color="#ecfeff" stop-opacity="0.75" />
      <stop offset="100%" stop-color="#eef2ff" stop-opacity="0.9" />
    </linearGradient>
  </defs>
  <rect width="1200" height="630" rx="28" fill="url(#opsCanvasA)" />
  <rect x="90" y="88" width="1020" height="454" rx="24" fill="rgba(255,255,255,0.08)" stroke="#7dd3fc" stroke-opacity="0.35" />
  <rect x="140" y="138" width="920" height="354" rx="20" fill="url(#opsCanvasB)" stroke="#0ea5e9" stroke-opacity="0.2" />
  <rect x="180" y="190" width="360" height="220" rx="16" fill="#0f172a" opacity="0.9" />
  <rect x="570" y="190" width="420" height="90" rx="12" fill="#e0f2fe" />
  <rect x="570" y="310" width="420" height="100" rx="12" fill="#eef2ff" />
  <rect x="570" y="440" width="240" height="26" rx="10" fill="#c7d2fe" />
  <rect x="830" y="440" width="160" height="26" rx="10" fill="#38bdf8" />
  <circle cx="226" cy="236" r="12" fill="#38bdf8" />
  <circle cx="226" cy="276" r="12" fill="#c7d2fe" />
  <circle cx="226" cy="316" r="12" fill="#38bdf8" />
  <rect x="258" y="228" width="240" height="16" rx="8" fill="#38bdf8" />
  <rect x="258" y="268" width="200" height="16" rx="8" fill="#c7d2fe" />
  <rect x="258" y="308" width="180" height="16" rx="8" fill="#38bdf8" />
  <rect x="200" y="356" width="300" height="32" rx="12" fill="#111827" stroke="#7dd3fc" stroke-opacity="0.5" />
  <path d="M200 370 H500" stroke="#38bdf8" stroke-width="6" stroke-linecap="round" />
  <path d="M640 218 h240" stroke="#0ea5e9" stroke-width="10" stroke-linecap="round" />
  <path d="M640 242 h310" stroke="#38bdf8" stroke-width="6" stroke-linecap="round" />
  <path d="M640 334 h260" stroke="#312e81" stroke-width="8" stroke-linecap="round" />
  <path d="M640 358 h200" stroke="#4f46e5" stroke-width="6" stroke-linecap="round" />
  <path d="M590 150 q30 -32 70 -10 t70 -8 t70 -12" stroke="#67e8f9" stroke-width="6" stroke-linecap="round" stroke-opacity="0.6" />
  <circle cx="590" cy="150" r="6" fill="#67e8f9" />
  <circle cx="730" cy="130" r="6" fill="#38bdf8" />
  <circle cx="870" cy="118" r="6" fill="#a5b4fc" />
</svg>
